<svg id="visual" viewBox="0 0 1920 1080" width="1920" height="1080" xmlns="http://www.w3.org/2000/svg" xmlns:xlink="http://www.w3.org/1999/xlink" version="1.1"><rect x="0" y="0" width="1920" height="1080" fill="#001D3D"></rect><path d="M0 29L16.8 33.7C33.7 38.3 67.3 47.7 101 54.7C134.7 61.7 168.3 66.3 202 66C235.7 65.7 269.3 60.3 303 56.3C336.7 52.3 370.3 49.7 404 50.5C437.7 51.3 471.3 55.7 505 59.5C538.7 63.3 572.3 66.7 606 62.8C639.7 59 673.3 48 707 46.7C740.7 45.3 774.3 53.7 808 57.5C841.7 61.3 875.3 60.7 909.2 57.3C943 54 977 48 1010.8 45.2C1044.7 42.3 1078.3 42.7 1112 47.8C1145.7 53 1179.3 63 1213 63C1246.7 63 1280.3 53 1314 47.3C1347.7 41.7 1381.3 40.3 1415 41.5C1448.7 42.7 1482.3 46.3 1516 47.8C1549.7 49.3 1583.3 48.7 1617 52.8C1650.7 57 1684.3 66 1718 62.5C1751.7 59 1785.3 43 1819 36.3C1852.7 29.7 1886.3 32.3 1903.2 33.7L1920 35L1920 0L1903.2 0C1886.3 0 1852.7 0 1819 0C1785.3 0 1751.7 0 1718 0C1684.3 0 1650.7 0 1617 0C1583.3 0 1549.7 0 1516 0C1482.3 0 1448.7 0 1415 0C1381.3 0 1347.7 0 1314 0C1280.3 0 1246.7 0 1213 0C1179.3 0 1145.7 0 1112 0C1078.3 0 1044.7 0 1010.8 0C977 0 943 0 909.2 0C875.3 0 841.7 0 808 0C774.3 0 740.7 0 707 0C673.3 0 639.7 0 606 0C572.3 0 538.7 0 505 0C471.3 0 437.7 0 404 0C370.3 0 336.7 0 303 0C269.3 0 235.7 0 202 0C168.3 0 134.7 0 101 0C67.3 0 33.7 0 16.8 0L0 0Z" fill="#FFC300" stroke-linecap="round" stroke-linejoin="miter"></path></svg>